<?xml version="1.0" encoding="UTF-8"?>
<!DOCTYPE svg PUBLIC "-//W3C//DTD SVG 1.1//EN" "http://www.w3.org/Graphics/SVG/1.1/DTD/svg11.dtd">
<!-- Creator: CorelDRAW X7 -->
<svg xmlns="http://www.w3.org/2000/svg" xml:space="preserve" width="208.094mm" height="116.837mm" version="1.1" style="shape-rendering:geometricPrecision; text-rendering:geometricPrecision; image-rendering:optimizeQuality; fill-rule:evenodd; clip-rule:evenodd"
viewBox="0 0 20681 11612"
 xmlns:xlink="http://www.w3.org/1999/xlink">
 <defs>
  <style type="text/css">
   <![CDATA[
    .fil1 {fill:#00A0E3}
    .fil2 {fill:#2B2A29}
    .fil3 {fill:#FEFEFE}
    .fil0 {fill:url(#id0)}
   ]]>
  </style>
  <radialGradient id="id0" gradientUnits="userSpaceOnUse" gradientTransform="matrix(1.79126 1.22458 -0.586946 0.832933 -1459 -1655)" cx="1240.85" cy="-812.809" r="8479.15" fx="1240.85" fy="-812.809">
   <stop offset="0" style="stop-opacity:0.619608; stop-color:#00AAFF"/>
   <stop offset="1" style="stop-opacity:1; stop-color:#00A0E3"/>
  </radialGradient>
 </defs>
 <g id="Layer_x0020_1">
  <metadata id="CorelCorpID_0Corel-Layer"/>
  <g id="_335360000">
   <rect class="fil0" width="20681" height="11612"/>
   <g>
    <path class="fil1" d="M11453 6271l7971 5341 1257 0 0 -1279 -7325 -7153 19 21 17 23 15 24 13 26 10 27 7 28 4 29 2 30 0 331 -1314 -1242 0 1 1 0 1 1 0 1 1 0 0 1 1 1 1 0 0 1 1 0 1 1 0 1 1 0 1 1 0 1 1 0 0 1 1 1 1 0 0 1 1 1 0 0 1 1 1 1 0 0 1 1 0 1 1 0 1 1 0 1 1 0 0 1 1 1 1 0 0 1 1 1 0 0 1 1 0 1 1 0 1 1 0 1 1 1 0 0 1 1 0 1 1 0 1 1 0 1 1 0 0 1 1 1 0 1 1 0 0 1 1 1 0 1 1 0 1 1 0 1 1 0 0 1 1 1 0 1 1 0 0 1 1 1 0 1 1 0 0 1 1 1 0 1 1 0 0 1 1 1 0 1 1 0 0 1 1 1 0 1 1 1 0 0 1 1 0 1 1 1 0 0 1 1 0 1 1 1 0 1 1 0 0 1 0 1 1 1 0 1 1 0 0 1 1 1 0 1 1 1 0 0 1 1 0 1 0 1 1 1 0 0 1 1 0 1 1 1 0 1 0 1 1 0 0 1 1 1 0 1 0 1 1 1 0 0 1 1 0 1 0 1 1 1 0 1 1 0 0 1 0 1 1 1 0 1 1 1 0 1 0 0 1 1 0 1 0 1 1 1 0 1 0 1 1 1 0 0 0 1 1 1 0 1 0 1 1 1 0 1 0 1 1 1 0 0 6 17 9 24 12 33 15 40 16 47 20 52 21 58 23 64 24 67 26 71 28 75 28 77 28 79 30 80 29 81 30 81 29 81 29 80 29 79 28 76 27 74 25 70 24 66 23 62 11 29 -1720 -1500 0 0 1 1 1 0 0 1 1 1 1 0 0 1 1 1 1 0 0 1 1 0 1 1 0 1 1 0 1 1 0 1 1 0 1 1 0 0 1 1 1 1 0 0 1 1 1 1 0 0 1 1 1 1 0 0 1 1 0 1 1 0 1 1 0 1 1 0 1 1 0 1 1 0 0 1 1 1 1 1 0 0 1 1 1 1 0 0 1 1 0 1 1 0 1 1 0 1 1 1 0 0 1 1 1 1 0 1 1 0 0 1 1 1 1 0 0 1 1 1 0 1 1 0 0 1 1 1 1 1 0 0 1 1 0 1 1 1 0 0 1 1 0 1 1 1 1 1 0 0 1 1 908 1297 1436 1205 0 34 0 0 0 1 0 1 0 1 0 1 0 1 0 0 0 1 -2 35 0 1 0 0 0 5 0 1 0 0 -107 -89 -988 -824 -1 -1 -105 -87 -75 -63 0 0 -2 -2 -2 -1 0 0 0 0 1 1 2 2 0 0 0 0 0 0 72 60 1 0 108 90 0 0 0 1 816 680 280 233 0 0 0 0 -670 -558 65 54 605 504 0 1 0 0 0 1 -5 90 -18 126 -28 118 -39 112 -47 103 -57 97 -64 88 -71 82 -78 73 -84 66 -89 58 -93 50 -98 42 -100 34 -103 27 -104 18 -106 11 -106 2 -106 -6 -105 -14 -103 -23 -101 -31 -98 -39 -95 -47 -90 -56zm7882 5341l-5841 0 -6464 -2511 17 7 18 5 17 5 19 5 18 4 19 3 19 3 19 2 19 2 20 1 20 0 19 0 18 -1 18 -1 18 -2 18 -3 18 -3 17 -3 18 -5 17 -4 17 -5 0 -1 -332 -131 -17 -8 -17 -8 -16 -10 -16 -11 -15 -11 -15 -13 -15 -13 -14 -15 -7 -7 -6 -8 -7 -8 -6 -8 -6 -8 -5 -8 -6 -9 -5 -8 -5 -9 -5 -9 -5 -9 -4 -10 -5 -9 -4 -10 -3 -10 -4 -10 -3 -10 -3 -11 -3 -10 -3 -11 -2 -11 -3 -11 -2 -11 -2 -11 -1 -12 -2 -12 -1 -12 -1 -12 -1 -12 0 -13 0 -12 -1 -13 1 -16 0 -16 0 -15 1 -15 1 -15 1 -14 2 -14 2 -14 2 -14 2 -13 2 -13 3 -13 3 -13 3 -12 3 -12 3 -11 4 -12 4 -11 4 -10 5 -11 4 -10 5 -10 5 -9 5 -10 6 -9 6 -9 6 -8 6 -8 6 -8 7 -8 7 -7 7 -7 15 -13 15 -13 15 -11 16 -11 16 -10 16 -9 17 -8 17 -7 17 -7 18 -5 18 -5 18 -4 19 -3 19 -2 20 -2 20 0 14 0 14 1 13 1 14 2 13 2 13 2 13 3 13 3 13 4 12 4 12 5 13 5 332 148 -3 -8 -9 -17 -8 -16 -9 -17 -10 -15 -10 -16 -10 -14 -11 -15 -11 -14 -12 -13 -13 -13 -12 -12 -14 -12 -13 -12 -15 -11 -14 -10 -15 -11 -16 -9 -16 -9 -16 -9 -17 -8 627 283 0 -314 901 422 7 -2 10 -2 10 -1 11 -1 11 -1 11 -1 12 -1 12 0 13 1 13 0 12 1 12 1 12 2 11 2 10 2 10 3 10 3 10 4 9 4 219 103 0 0 -1 -9 0 -7 -1 -8 0 -7 -1 -6 -1 -6 0 -6 -1 -5 -1 -5 -3 -14 -4 -13 -5 -13 -5 -12 -6 -12 -6 -11 -7 -11 -8 -9 -8 -10 -10 -8 -10 -9 -12 -8 -12 -8 -14 -7 496 239 -93 -259 513 252 94 -252 673 342 66 0 -377 -193 0 -207 -2251 -1178 105 54 108 49 111 44 113 38 116 33 118 27 120 22 122 15 124 10 126 3 72 -1 72 -3 71 -6 71 -7 70 -9 70 -11 69 -13 68 -15 67 -17 67 -19 65 -21 65 -22 65 -24 63 -26 62 -28 62 -29 60 -31 60 -33 58 -34 58 -35 56 -38 55 -38 54 -41 53 -41 52 -43 51 -45 49 -45 48 -48 47 -48 45 -50 44 -51 43 -52 -13 -8 -13 -9 -12 -9 -13 -8 -12 -9 -13 -10 -12 -9 -12 -9 7930 5256zm-8647 -8980l0 0zm7 -5l0 0zm12 -7l0 0zm7 -4l0 0zm6 -4l0 0zm7 -3l0 0zm13 -6l0 0zm35 -13l0 0zm20 -5l0 0zm29 -4l0 0zm119 11l0 0zm2498 2696l-662 -551 -290 -242 -144 -120 -1 0 0 -1 -24 -20 -91 -75 -65 -55 0 0 0 0 -2 -2 -1 0 0 0 0 -1 1280 1067zm-1279 -1066l1 2 0 -1 -1 -1zm2 2l57 48 -54 -45 -3 -3 0 0 0 0zm181 151l128 107 -104 -87 -140 -116 116 96zm-183 -153l0 0 0 1 0 0 1 0 0 0 0 0 0 1 0 0 66 55 64 53 51 42 0 1 34 28 1063 886 -1279 -1067zm182 153l-48 -40 48 39 0 1zm-181 -151l1278 1065 -1278 -1065zm0 0l0 0 0 1 0 0 1 0 0 0 0 1 0 0 0 0 0 0 1 1 1276 1063 -1278 -1066zm1278 1065l-1278 -1065 1278 1065zm-2452 -2679l0 0zm850 -201l0 0zm14 -4l0 0zm8 -2l0 0zm7 -2l0 0zm7 -1l0 0zm7 -1l0 0zm22 -3l0 0zm50 1l0 0zm7 1l0 0zm29 5l0 0zm60 21l0 0zm-47 -18l0 0z"/>
   </g>
   <path class="fil2" d="M8496 3993c195,0 353,158 353,353 0,195 -158,353 -353,353 -195,0 -353,-158 -353,-353 0,-195 158,-353 353,-353zm2205 0c194,0 353,158 353,353 0,195 -159,353 -353,353 -195,0 -353,-158 -353,-353 0,-195 158,-353 353,-353zm-122 1548c-191,372 -561,618 -981,618 -419,0 -790,-246 -981,-618l-5 -10 -9 -20c-22,-43 -40,-88 -89,-88 -58,0 -105,53 -79,110l23 51c201,448 647,738 1140,738 493,0 939,-290 1140,-738l23 -51c26,-57 -21,-110 -79,-110 -49,0 -67,45 -88,88l-10 20 -5 10zm-3299 -617c0,-1280 1038,-2318 2318,-2318 349,0 681,77 978,216 -18,78 -4,163 45,234l833 1189c-399,293 -607,908 -455,1378 669,-91 265,-603 695,-880 354,-228 874,-128 995,405 101,449 -132,778 -561,843 -453,70 -463,-563 -1120,-340 380,1292 2432,1071 2440,-391 0,-2 0,-4 0,-6l0 -1852c0,-162 -133,-294 -294,-294 -162,0 -295,132 -295,294l3 998c0,0 -609,-1670 -655,-1796 -1,-3 -1,-5 -2,-8 -1,-2 -2,-4 -3,-7 -1,-2 -2,-4 -3,-6 -1,-3 -2,-5 -3,-7 -2,-2 -3,-5 -4,-7 -1,-2 -2,-4 -3,-6 -1,-2 -3,-5 -4,-7 -1,-2 -2,-4 -4,-6 -1,-2 -2,-4 -4,-6 -1,-2 -2,-4 -4,-6 -1,-2 -2,-4 -4,-6 -1,-2 -3,-4 -4,-6 -2,-2 -3,-4 -5,-6 -1,-2 -3,-3 -4,-5 -2,-2 -3,-4 -5,-6 -1,-1 -3,-3 -5,-5 -1,-2 -3,-3 -5,-5 -1,-2 -3,-4 -5,-5 -1,-2 -3,-3 -5,-5 -2,-2 -3,-3 -5,-5 -2,-1 -4,-3 -6,-5 -1,-1 -3,-3 -5,-4 -2,-2 -4,-3 -6,-4 -2,-2 -3,-3 -5,-5 -2,-1 -4,-2 -6,-4 -2,-1 -4,-2 -6,-4 -2,-1 -4,-2 -6,-4 -2,-1 -4,-2 -6,-3 -2,-1 -4,-3 -6,-4 -2,-1 -4,-2 -6,-3 -3,-1 -5,-2 -7,-3l0 0c-2,-1 -4,-2 -6,-3l0 0c-2,-1 -4,-2 -7,-3 -2,-1 -4,-2 -6,-3 -2,-1 -4,-2 -7,-3 -2,0 -4,-1 -6,-2 -3,-1 -5,-2 -7,-2 -2,-1 -5,-2 -7,-2 -2,-1 -4,-2 -7,-2l0 0c-2,-1 -4,-2 -6,-2 -3,-1 -5,-1 -7,-2l0 0c-3,0 -5,-1 -7,-1 -3,-1 -5,-1 -7,-2 -3,0 -5,0 -7,-1 -3,0 -5,-1 -7,-1l0 0c-3,0 -5,0 -8,-1l0 0c-2,0 -4,0 -7,0 -2,0 -4,-1 -7,-1 -2,0 -5,0 -7,0 -2,0 -5,0 -7,0l0 0c-3,0 -5,0 -7,0 -3,0 -5,0 -8,0 -2,0 -4,0 -7,1l0 0c-2,0 -5,0 -7,0l0 0c-2,0 -5,1 -7,1 -3,0 -5,1 -8,1l0 0c-2,0 -4,1 -7,1l0 0c-2,1 -5,1 -7,1l0 0c-2,1 -5,1 -7,2l0 0c-3,1 -5,1 -7,2l0 0c-3,0 -5,1 -8,2l0 0c-2,0 -4,1 -7,2l0 0c-2,0 -5,1 -7,2l0 0c-2,1 -5,2 -7,3l0 0c-152,55 -232,225 -176,377l437 1201 97 265c-5,-9 -10,-18 -16,-27l0 0 -1 -1 0 0 0 0 0 -1 0 0 -1 0 0 -1 0 -1 0 0 -1 0 0 0 0 -1 0 0 -1 0 0 0 0 -1 0 0 0 0 0 0 -1 -1 0 0 0 -1 0 0 0 0 -1 0 0 -1 0 0 0 0 -154 -220 -908 -1297c-2,-2 -3,-4 -5,-6 -1,-2 -3,-4 -4,-6 -2,-2 -3,-4 -5,-6 -1,-2 -3,-4 -5,-6 -1,-1 -3,-3 -5,-5 -1,-2 -3,-4 -5,-5 -1,-2 -3,-4 -5,-6 -2,-1 -3,-3 -5,-5 -2,-2 -4,-3 -5,-5 -2,-1 -4,-3 -6,-5 -2,-1 -4,-3 -6,-4 -1,-2 -3,-3 -5,-5 -2,-1 -4,-3 -6,-4 -2,-1 -4,-3 -6,-4 -2,-2 -4,-3 -6,-4 -2,-2 -4,-3 -6,-4 -2,-1 -4,-3 -6,-4 -2,-1 -4,-2 -6,-3 -2,-2 -4,-3 -6,-4 -3,-1 -5,-2 -7,-3l0 0c-2,-1 -4,-2 -6,-3 -2,-1 -5,-2 -7,-3 -2,-1 -4,-2 -6,-3 -2,-1 -5,-2 -7,-3 -2,0 -4,-1 -7,-2 -2,-1 -4,-2 -6,-2 -2,-1 -5,-2 -7,-2l0 0c-2,-1 -5,-2 -7,-2 -2,-1 -4,-2 -7,-2 -2,-1 -4,-1 -7,-2 -2,0 -4,-1 -6,-1 -3,-1 -5,-1 -7,-2 -3,0 -5,0 -7,-1 -3,0 -5,0 -7,-1 -3,0 -5,0 -7,-1 -3,0 -5,0 -7,0 -3,0 -5,-1 -8,-1 -2,0 -4,0 -7,0 -2,0 -4,0 -7,0 -2,0 -4,0 -7,0 -2,0 -5,0 -7,0 -2,0 -5,0 -7,0l0 0c-2,1 -5,1 -7,1 -2,0 -5,0 -7,1l0 0c-3,0 -5,0 -7,1 -3,0 -5,0 -7,1 -3,0 -5,0 -7,1 -3,0 -5,1 -7,1l0 0c-3,1 -5,1 -7,2l0 0c-3,0 -5,1 -7,2l0 0c-3,0 -5,1 -7,2l0 0c-3,0 -5,1 -7,2 -3,0 -5,1 -7,2 -2,1 -5,2 -7,2l0 0c-2,1 -4,2 -7,3 -2,1 -4,2 -6,3l0 0c-3,1 -5,2 -7,3 -2,1 -5,2 -7,3l0 0c-2,1 -4,2 -6,3l0 0c-3,2 -5,3 -7,4l0 0c-2,1 -4,2 -6,4l0 0c-3,1 -5,2 -7,4l0 0c-2,1 -4,2 -6,4l0 0c-2,1 -4,2 -6,4l0 0c-27,18 -49,40 -67,64 -313,-145 -661,-227 -1029,-227 -1348,0 -2441,1093 -2441,2441 0,1348 1093,2441 2441,2441 775,0 1465,-361 1912,-924 -34,-22 -68,-46 -100,-71 -425,532 -1078,872 -1812,872 -1280,0 -2318,-1038 -2318,-2318zm-586 3653c0,-189 51,-337 153,-444 102,-107 233,-161 394,-161 106,0 200,26 285,76 85,50 149,120 194,210 44,90 66,192 66,306 0,116 -23,219 -70,310 -47,92 -113,161 -198,208 -86,47 -179,70 -278,70 -107,0 -203,-26 -288,-78 -84,-52 -149,-122 -192,-212 -44,-90 -66,-184 -66,-285zm157 3c0,137 36,246 110,324 74,79 167,119 279,119 113,0 206,-40 280,-120 73,-79 110,-192 110,-339 0,-93 -16,-174 -47,-243 -31,-69 -77,-123 -138,-161 -60,-38 -128,-57 -203,-57 -107,0 -199,37 -276,110 -77,74 -115,196 -115,367zm1113 553l0 -1141 140 0 0 650 331 -336 182 0 -316 307 347 520 -172 0 -275 -423 -97 95 0 328 -140 0zm1336 -104c-52,45 -102,76 -150,94 -48,18 -100,28 -155,28 -91,0 -161,-23 -209,-67 -49,-44 -74,-101 -74,-169 0,-41 9,-78 28,-111 18,-34 43,-60 72,-80 30,-21 64,-36 101,-46 28,-8 70,-14 125,-21 113,-14 197,-30 250,-48 1,-20 1,-32 1,-37 0,-57 -13,-97 -40,-120 -35,-32 -89,-48 -160,-48 -66,0 -115,12 -146,35 -32,23 -55,64 -70,123l-137 -19c13,-59 33,-106 62,-142 28,-36 70,-64 124,-84 54,-19 117,-29 188,-29 71,0 129,8 173,25 44,17 77,38 97,63 21,25 36,57 44,95 5,24 7,67 7,129l0 186c0,130 3,212 9,247 5,35 17,68 34,100l-146 0c-15,-30 -24,-64 -28,-104zm-11 -310c-51,20 -127,38 -229,52 -58,8 -99,18 -123,28 -24,10 -42,26 -55,45 -13,20 -20,42 -20,67 0,37 14,68 43,92 28,25 69,38 124,38 54,0 102,-12 144,-36 42,-23 73,-55 93,-96 15,-32 22,-78 22,-139l1 -51zm351 732l-16 -130c31,9 58,13 81,13 31,0 56,-5 74,-16 19,-10 35,-25 47,-43 8,-14 23,-49 42,-105 3,-8 7,-19 13,-34l-314 -830 150 0 172 477c23,61 43,124 61,191 16,-63 35,-125 57,-186l177 -482 140 0 -313 841c-34,91 -60,153 -79,187 -25,46 -53,80 -86,102 -32,21 -71,32 -115,32 -27,0 -58,-6 -91,-17zm815 -318l0 -1141 784 0 0 192 -553 0 0 271 478 0 0 193 -478 0 0 485 -231 0zm1135 -572l-198 -35c22,-81 61,-141 115,-180 55,-38 136,-58 243,-58 98,0 170,12 218,35 48,23 81,52 101,88 19,35 29,100 29,195l-3 255c0,73 3,127 10,161 7,35 20,72 39,111l-217 0c-5,-14 -12,-36 -20,-64 -4,-13 -7,-21 -8,-25 -37,36 -77,64 -120,82 -42,18 -87,28 -136,28 -84,0 -151,-23 -200,-70 -49,-46 -73,-104 -73,-175 0,-46 11,-88 33,-125 22,-36 53,-64 94,-84 40,-19 98,-36 174,-51 102,-19 173,-37 212,-53l0 -22c0,-43 -11,-73 -31,-91 -21,-18 -61,-28 -118,-28 -39,0 -70,8 -91,24 -22,15 -40,43 -53,82zm293 177c-28,9 -72,20 -133,33 -61,13 -101,26 -119,38 -29,21 -43,46 -43,77 0,31 11,57 34,80 23,22 52,33 87,33 40,0 77,-13 113,-39 27,-20 44,-44 52,-72 6,-19 9,-54 9,-107l0 -43zm1151 -187l-215 38c-7,-42 -24,-75 -50,-96 -25,-22 -59,-33 -99,-33 -55,0 -98,19 -131,57 -32,38 -49,101 -49,189 0,98 17,168 50,208 33,41 77,61 132,61 42,0 76,-12 102,-35 27,-24 45,-65 56,-123l215 37c-22,99 -65,174 -128,224 -63,50 -148,76 -255,76 -120,0 -217,-39 -288,-115 -72,-76 -108,-182 -108,-317 0,-137 36,-243 108,-320 72,-76 169,-114 292,-114 101,0 181,22 240,65 60,44 102,109 128,198zm644 321l219 36c-28,80 -73,141 -133,183 -60,42 -136,63 -227,63 -143,0 -250,-47 -319,-141 -54,-76 -82,-171 -82,-286 0,-137 36,-245 108,-322 71,-78 162,-117 271,-117 123,0 220,41 291,122 71,81 105,206 102,374l-547 0c2,65 19,115 53,151 33,36 75,55 125,55 35,0 63,-10 86,-28 24,-19 41,-49 53,-90zm13 -222c-1,-64 -18,-112 -49,-145 -31,-33 -69,-50 -113,-50 -48,0 -87,18 -118,53 -31,35 -46,82 -46,142l326 0z"/>
   <path class="fil3" d="M8491 3979c195,0 353,158 353,353 0,195 -158,353 -353,353 -195,0 -353,-158 -353,-353 0,-195 158,-353 353,-353zm2204 0c195,0 353,158 353,353 0,195 -158,353 -353,353 -195,0 -353,-158 -353,-353 0,-195 158,-353 353,-353zm-121 1548c-191,372 -562,617 -981,617 -419,0 -790,-245 -981,-617l-5 -10 -9 -20c-22,-44 -40,-88 -89,-88 -58,0 -105,53 -79,110l23 51c201,448 647,737 1140,737 493,0 939,-289 1140,-737l23 -51c26,-57 -21,-110 -79,-110 -49,0 -67,44 -89,88l-9 20 -5 10zm-3299 -617c0,-1280 1038,-2318 2318,-2318 349,0 681,77 978,216 -18,78 -4,163 45,234l833 1189c-399,293 -607,908 -456,1378 670,-91 266,-603 695,-880 354,-228 875,-128 996,405 101,449 -132,778 -561,843 -453,69 -463,-563 -1121,-340 381,1292 2433,1071 2441,-391 0,-2 0,-4 0,-6l0 -1852c0,-162 -133,-294 -295,-294 -162,0 -295,132 -294,294l3 998c0,0 -609,-1670 -655,-1797 -1,-2 -2,-4 -3,-7 0,-2 -1,-4 -2,-7 -1,-2 -2,-4 -3,-7 -1,-2 -2,-4 -4,-6 -1,-2 -2,-5 -3,-7 -1,-2 -2,-4 -3,-6 -2,-3 -3,-5 -4,-7 -1,-2 -2,-4 -4,-6 -1,-2 -2,-4 -4,-6 -1,-2 -2,-4 -4,-6 -1,-2 -2,-4 -4,-6 -1,-2 -3,-4 -4,-6 -2,-2 -3,-4 -5,-6 -1,-2 -3,-4 -4,-5 -2,-2 -3,-4 -5,-6 -2,-2 -3,-3 -5,-5 -1,-2 -3,-4 -5,-5 -1,-2 -3,-4 -5,-5 -2,-2 -3,-4 -5,-5 -2,-2 -4,-3 -5,-5 -2,-2 -4,-3 -6,-5 -1,-1 -3,-3 -5,-4 -2,-2 -4,-3 -6,-5 -2,-1 -4,-2 -5,-4 -2,-1 -4,-3 -6,-4 -2,-1 -4,-3 -6,-4 -2,-1 -4,-2 -6,-4 -2,-1 -4,-2 -6,-3 -2,-1 -4,-3 -6,-4 -2,-1 -5,-2 -7,-3 -2,-1 -4,-2 -6,-3l0 0c-2,-1 -4,-2 -6,-3l0 0c-2,-1 -5,-2 -7,-3 -2,-1 -4,-2 -6,-3 -2,-1 -5,-2 -7,-3 -2,-1 -4,-1 -6,-2 -3,-1 -5,-2 -7,-2 -2,-1 -5,-2 -7,-3 -2,0 -4,-1 -7,-2l0 0c-2,0 -4,-1 -7,-1 -2,-1 -4,-2 -6,-2l0 0c-3,-1 -5,-1 -7,-2 -3,0 -5,0 -7,-1 -3,0 -5,-1 -7,-1 -3,0 -5,-1 -8,-1l0 0c-2,0 -4,-1 -7,-1l0 0c-2,0 -4,0 -7,0 -2,-1 -5,-1 -7,-1 -2,0 -5,0 -7,0 -2,0 -5,0 -7,0l0 0c-3,0 -5,0 -7,0 -3,0 -5,0 -8,0 -2,0 -5,0 -7,0l0 0c-2,1 -5,1 -7,1l0 0c-3,0 -5,1 -7,1 -3,0 -5,0 -8,1l0 0c-2,0 -4,1 -7,1l0 0c-2,0 -5,1 -7,1l0 0c-3,1 -5,1 -7,2l0 0c-3,0 -5,1 -8,2l0 0c-2,0 -4,1 -7,1l0 0c-2,1 -5,2 -7,3l0 0c-2,0 -5,1 -7,2l0 0c-3,1 -5,2 -7,2l0 0c-152,56 -232,226 -176,378l437 1201 96 265c-4,-9 -10,-18 -15,-27l0 0 -1 -1 0 0 0 -1 0 0 -1 0 0 -1 0 0 -1 -1 0 0 0 0 0 0 0 -1 0 0 -1 0 0 0 0 -1 0 0 0 -1 0 0 -1 0 0 0 0 -1 0 0 -1 0 0 0 0 -1 0 0 0 0 -154 -220 -908 -1297c-2,-2 -3,-4 -5,-6 -1,-2 -3,-4 -4,-6 -2,-2 -3,-4 -5,-6 -2,-2 -3,-4 -5,-6 -1,-2 -3,-3 -5,-5 -1,-2 -3,-4 -5,-6 -1,-1 -3,-3 -5,-5 -2,-2 -3,-3 -5,-5 -2,-2 -4,-3 -6,-5 -1,-2 -3,-3 -5,-5 -2,-1 -4,-3 -6,-4 -2,-2 -3,-3 -5,-5 -2,-1 -4,-3 -6,-4 -2,-2 -4,-3 -6,-4 -2,-2 -4,-3 -6,-4 -2,-2 -4,-3 -6,-4 -2,-2 -4,-3 -6,-4 -2,-1 -4,-2 -6,-4 -2,-1 -4,-2 -7,-3 -2,-1 -4,-2 -6,-3l0 0c-2,-1 -4,-2 -6,-3 -2,-1 -5,-2 -7,-3 -2,-1 -4,-2 -6,-3 -3,-1 -5,-2 -7,-3 -2,0 -4,-1 -7,-2 -2,-1 -4,-2 -6,-2 -3,-1 -5,-2 -7,-2l0 0c-2,-1 -5,-2 -7,-2 -2,-1 -4,-2 -7,-2 -2,-1 -4,-1 -7,-2 -2,0 -4,-1 -7,-1 -2,-1 -4,-1 -7,-2 -2,0 -4,0 -6,-1 -3,0 -5,-1 -8,-1 -2,0 -4,0 -7,-1 -2,0 -4,0 -7,0 -2,0 -4,-1 -7,-1 -2,0 -4,0 -7,0 -2,0 -4,0 -7,0 -2,0 -5,0 -7,0 -2,0 -5,0 -7,0 -2,0 -5,0 -7,0l0 0c-2,1 -5,1 -7,1 -3,0 -5,0 -7,1l0 0c-3,0 -5,0 -7,0 -3,1 -5,1 -7,2 -3,0 -5,0 -7,1 -3,0 -5,1 -8,1l0 0c-2,1 -4,1 -7,2l0 0c-2,0 -4,1 -6,2l0 0c-3,0 -5,1 -7,1l0 0c-3,1 -5,2 -7,3 -3,0 -5,1 -7,2 -3,1 -5,1 -7,2l0 0c-2,1 -5,2 -7,3 -2,1 -4,2 -7,3l0 0c-2,1 -4,2 -6,3 -3,1 -5,2 -7,3l0 0c-2,1 -4,2 -7,3l0 0c-2,1 -4,3 -6,4l0 0c-2,1 -4,2 -7,4l0 0c-2,1 -4,2 -6,3l0 0c-2,2 -4,3 -6,4l0 0c-2,2 -4,3 -7,5l0 0c-26,18 -48,40 -66,64 -313,-145 -661,-227 -1029,-227 -1348,0 -2441,1093 -2441,2441 0,1348 1093,2441 2441,2441 775,0 1465,-361 1912,-924 -35,-22 -68,-46 -100,-71 -425,532 -1079,872 -1812,872 -1280,0 -2318,-1038 -2318,-2318zm-586 3653c0,-189 51,-337 153,-444 102,-107 233,-161 394,-161 105,0 200,26 285,76 85,50 149,120 193,210 45,90 67,192 67,306 0,116 -23,219 -70,310 -47,92 -113,161 -198,208 -86,47 -179,70 -278,70 -107,0 -203,-26 -288,-78 -85,-52 -149,-122 -192,-212 -44,-90 -66,-185 -66,-285zm156 3c0,137 37,245 111,324 74,79 167,119 278,119 114,0 207,-40 281,-120 73,-79 110,-193 110,-339 0,-93 -16,-174 -47,-243 -31,-69 -77,-123 -138,-161 -60,-38 -128,-57 -203,-57 -107,0 -199,37 -276,110 -77,73 -116,196 -116,367zm1113 553l0 -1142 141 0 0 651 331 -336 181 0 -315 307 347 520 -172 0 -275 -423 -97 95 0 328 -141 0zm1337 -104c-52,45 -102,76 -150,94 -48,18 -100,27 -155,27 -91,0 -161,-22 -210,-66 -48,-44 -73,-101 -73,-170 0,-40 9,-77 28,-110 18,-34 42,-60 72,-81 30,-20 64,-35 101,-46 28,-7 70,-14 125,-21 113,-13 197,-29 250,-48 1,-19 1,-31 1,-36 0,-57 -13,-97 -40,-120 -36,-32 -89,-48 -160,-48 -66,0 -115,12 -146,35 -32,23 -55,64 -70,123l-137 -19c12,-59 33,-106 62,-142 28,-36 70,-64 124,-84 54,-19 117,-29 188,-29 71,0 128,8 173,25 44,17 77,37 97,63 21,25 36,57 44,95 5,24 7,67 7,129l0 186c0,130 3,212 9,247 5,35 17,68 34,100l-147 0c-14,-30 -23,-64 -27,-104zm-11 -311c-51,21 -127,39 -229,53 -58,8 -99,18 -123,28 -24,10 -42,25 -55,45 -13,20 -20,42 -20,66 0,37 14,69 42,93 29,25 70,37 125,37 54,0 102,-11 144,-35 42,-23 73,-55 93,-96 15,-32 22,-78 22,-140l1 -51zm351 733l-16 -130c31,8 58,13 80,13 32,0 57,-6 75,-16 19,-10 35,-25 47,-44 8,-14 23,-48 42,-104 3,-8 7,-19 13,-34l-314 -830 150 0 172 477c23,61 43,124 61,191 16,-63 35,-125 57,-186l177 -482 140 0 -313 841c-34,91 -60,153 -79,187 -25,46 -54,80 -86,101 -32,22 -71,33 -115,33 -27,0 -58,-6 -91,-17zm815 -318l0 -1142 784 0 0 193 -553 0 0 271 478 0 0 193 -478 0 0 485 -231 0zm1134 -572l-197 -35c22,-81 61,-141 115,-180 55,-39 136,-58 243,-58 97,0 170,11 218,35 48,23 81,52 101,87 19,36 29,101 29,196l-3 255c0,73 3,127 10,161 7,35 20,72 39,111l-217 0c-5,-14 -12,-36 -21,-64 -3,-13 -6,-21 -7,-25 -38,36 -77,64 -120,82 -42,18 -88,28 -136,28 -84,0 -151,-24 -200,-70 -49,-46 -74,-104 -74,-175 0,-46 12,-88 34,-125 22,-36 53,-64 94,-84 40,-19 98,-36 173,-51 102,-19 173,-37 213,-53l0 -22c0,-43 -11,-73 -31,-92 -21,-18 -61,-27 -118,-27 -39,0 -70,8 -91,24 -22,15 -40,43 -54,82zm294 177c-28,9 -73,20 -133,33 -61,13 -101,26 -119,38 -29,20 -43,46 -43,77 0,31 11,57 34,79 23,23 52,34 87,34 40,0 77,-13 113,-39 26,-20 44,-44 52,-72 6,-19 9,-55 9,-107l0 -43zm1151 -187l-215 38c-7,-43 -24,-75 -50,-96 -25,-22 -59,-33 -100,-33 -54,0 -98,19 -130,57 -32,37 -49,100 -49,189 0,98 17,168 50,208 33,41 77,61 132,61 42,0 76,-12 102,-36 26,-23 45,-64 56,-122l215 37c-22,99 -65,173 -128,224 -63,50 -148,76 -255,76 -120,0 -217,-39 -289,-115 -72,-76 -107,-182 -107,-317 0,-137 36,-244 108,-320 72,-76 169,-114 292,-114 101,0 181,22 240,65 59,43 102,109 128,198zm644 320l219 37c-28,80 -73,141 -133,183 -61,42 -136,63 -227,63 -144,0 -250,-47 -319,-141 -54,-76 -82,-171 -82,-286 0,-137 36,-245 108,-322 71,-78 162,-117 271,-117 123,0 220,41 291,122 71,81 105,206 102,374l-547 0c2,65 19,115 53,151 33,36 75,54 125,54 35,0 63,-9 86,-28 24,-18 41,-48 53,-90zm13 -221c-2,-64 -18,-112 -49,-145 -31,-33 -69,-50 -113,-50 -48,0 -87,18 -118,53 -31,35 -47,82 -46,142l326 0z"/>
  </g>
 </g>
</svg>
