<?xml version="1.0" encoding="UTF-8"?>
<!DOCTYPE svg PUBLIC "-//W3C//DTD SVG 1.1//EN" "http://www.w3.org/Graphics/SVG/1.1/DTD/svg11.dtd">
<!-- Creator: CorelDRAW X7 -->
<svg xmlns="http://www.w3.org/2000/svg" xml:space="preserve" width="65.0687mm" height="83.2186mm" version="1.1" style="shape-rendering:geometricPrecision; text-rendering:geometricPrecision; image-rendering:optimizeQuality; fill-rule:evenodd; clip-rule:evenodd"
viewBox="0 0 12468 15946"
 xmlns:xlink="http://www.w3.org/1999/xlink">
 <defs>
  <style type="text/css">
   <![CDATA[
    .fil1 {fill:#2B2A29}
    .fil0 {fill:#00A0E3}
    .fil2 {fill:#00A0E3;fill-rule:nonzero}
   ]]>
  </style>
    <mask id="id0">
  <linearGradient id="id1" gradientUnits="userSpaceOnUse" x1="1758.51" y1="1993.46" x2="12147" y2="12777.3">
   <stop offset="0" style="stop-opacity:1; stop-color:white"/>
   <stop offset="0.0509804" style="stop-opacity:0.501961; stop-color:white"/>
   <stop offset="1" style="stop-opacity:0; stop-color:white"/>
  </linearGradient>
     <rect style="fill:url(#id1)" x="1418" y="2284" width="11069" height="10204"/>
    </mask>
 </defs>
 <g id="Layer_x0020_1">
  <metadata id="CorelCorpID_0Corel-Layer"/>
  <g id="_220591224">
   <path class="fil0" d="M10989 12468l-9510 0c-813,0 -1479,-666 -1479,-1479l0 -9510c0,-813 666,-1479 1479,-1479l9510 0c813,0 1479,666 1479,1479l0 9510c0,813 -666,1479 -1479,1479zm-9510 -12296l9510 0c719,0 1307,588 1307,1307l0 9510c0,719 -588,1307 -1307,1307l-9510 0c-719,0 -1307,-588 -1307,-1307l0 -9510c0,-719 588,-1307 1307,-1307z"/>
   <path class="fil1" style="mask:url(#id0)" d="M7606 7846l92 -53 809 881 -147 -58 -79 -40 -675 -730zm3383 4622l-4238 0 -3952 -3072 152 108 157 101 162 93 167 85 171 78 176 69 10 4 -888 -701c615,463 1380,738 2210,738 1164,0 2201,-541 2875,-1384l85 -130c2,-2 -4,-3 -6,-4 -325,-223 -585,-557 -718,-1007 1043,-353 1060,650 1779,540 681,-104 1050,-626 889,-1339 -191,-845 -1017,-1004 -1579,-642 -681,439 -40,1252 -1103,1397 -241,-746 90,-1722 722,-2188l-1320 -1886c-79,-112 -101,-247 -73,-372l-44 -20 -45 -20 -45 -19 -45 -18 -46 -18 -45 -18 -47 -17 317 130 2235 2808 9 -145c1022,-118 1600,1509 2085,2162l8 -14 29 -63 3 -6 0 0 -874 -1182 -963 -1305 -1 -1 0 0 -2 -4 -1 0 3 4 0 0 0 0 12 16 957 1296 3 4 5 7 248 335 613 830 0 0 0 0 0 0 0 0 -612 -829 -1 -1 -206 -279 -42 -56 -2 -4 -2 -2 -3 -5 -1 -1 -73 -99 -434 -587 -438 -593 -10 -14 -2 -3 -2 -2 -4 -6 -1 0 0 -2 -2 -1 -2 -4 0 0 0 0 0 0 0 0 -2 -2 -1 -2 -1 0 0 0 -1 -2 0 0 0 0 -1 -1 0 -1 -1 0 0 -1 -1 -2 -1 0 -244 -350 -1441 -2057 -1 -1 -1 -1 -1 -2 0 -1 -1 -1 -1 -1 -1 -2 -1 -1 3516 4786 0 1 1 1 1 1 0 1 1 1 1 1 1 1 0 1 44 63 17 -36 61 -177 45 -188 28 -200 11 -212 0 -1 0 -2 0 -1 0 -1 0 -2 0 -1 0 -1 0 -2 0 -17 -930 -1337 -3 -7 -8 -23 -13 -35 -18 -49 -22 -60 -26 -72 -29 -81 -33 -90 -36 -98 -38 -106 -41 -111 -42 -117 -45 -121 -45 -125 -46 -126 -47 -129 -47 -129 -47 -129 -46 -127 -46 -125 -45 -123 -43 -118 -41 -113 -39 -107 -36 -100 -34 -92 -30 -84 -27 -74 -23 -63 -19 -52 -14 -39 -10 -26 0 -1 -1 -2 0 -1 -1 -2 -1 -1 0 -1 -1 -2 0 -1 -1 -2 0 -1 -1 -1 0 -2 -1 -1 0 -1 -1 -2 -1 -1 0 -2 -1 -1 0 -1 -1 -2 -1 -1 0 -1 -1 -2 0 -1 -1 -1 -1 -2 0 -1 -1 -2 -1 -1 0 -1 -1 -2 0 -1 -1 -1 -1 -1 0 -2 -1 -1 -1 -1 0 -2 -1 -1 -1 -1 0 -2 -1 -1 -1 -1 0 -2 -1 -1 -1 -1 -1 -1 0 -2 -1 -1 -1 -1 0 -2 -1 -1 -1 -1 -1 -1 0 -2 -1 -1 -1 -1 0 -1 -1 -2 -1 -1 -1 -1 0 -1 -1 -2 -1 -1 -1 -1 0 -1 -1 -2 -1 -1 -1 -1 -1 -1 0 -1 -1 -1 -1 -2 -1 -1 854 1301 1164 1776 0 -1712 -3 -48 -7 -46 -11 -45 -16 -43 -20 -41 1300 1765 0 5569c0,534 -288,1005 -716,1265l-48 -19 -120 -60 -114 -72 -108 -82 -101 -92 -693 -742 -12 27 -15 31 994 1057 -54 66 -19 22c-149,50 -308,78 -473,78zm-4064 -5129c-320,712 -1027,1171 -1809,1171 -782,0 -1490,-459 -1810,-1171l-36 -80c-40,-90 34,-176 125,-176 87,0 117,94 157,173 302,598 892,995 1564,995 666,0 1253,-390 1556,-980 44,-85 75,-188 164,-188 92,0 166,86 126,176l-37 80zm-3558 -2524c309,0 560,251 560,560 0,309 -251,560 -560,560 -310,0 -561,-251 -561,-560 0,-309 251,-560 561,-560zm3498 1120c-309,0 -560,-251 -560,-560 0,-309 251,-560 560,-560 310,0 560,251 560,560 0,309 -250,560 -560,560zm-1935 -3316l-3 0 -4 0 7 0zm-171 13l-19 1 -24 3c14,-2 29,-3 43,-4zm-164 19l-39 5 -52 10c31,-6 61,-10 91,-15zm-153 26l-67 12 -178 41 -175 49 -171 58 -167 66 -163 74 -158 81 -53 30c353,-199 736,-337 1132,-411zm-1189 444l-44 26 -32 20c25,-16 50,-31 76,-46zm-168 105l-26 16 -19 14c15,-10 30,-20 45,-30zm-156 109l-14 10 -10 8 24 -18zm-147 114l-6 5 -4 4 10 -9zm-137 119l-2 2 -3 2 5 -4zm-130 123l0 0 0 1 0 -1zm-787 1166l-1 4 -3 6 4 -10zm-64 161l-3 10 -5 13 8 -23zm-56 165l-5 16 -6 20c4,-12 7,-24 11,-36zm-49 169l-6 21 -5 25c3,-15 7,-31 11,-46zm-41 174l-6 25 -5 28c4,-18 7,-35 11,-53zm-34 182l-4 24 -4 28m-16 128l-4 28 -2 29c2,-19 4,-38 6,-57zm-15 184l-3 31 -1 34c1,-22 2,-44 4,-65zm-7 184l-1 36 1 40c0,-25 0,-51 0,-76zm3 177l1 49 5 59c-3,-36 -5,-72 -6,-108zm10 167l5 69 24 184 32 181 41 178 50 174 58 171 38 97c-135,-339 -218,-694 -248,-1054zm251 1063l25 61 19 44c-15,-35 -30,-70 -44,-105zm79 182l19 42 16 31c-12,-24 -23,-48 -35,-73zm90 179l10 22 12 19c-8,-13 -15,-27 -22,-41zm95 169l4 7 6 10c-3,-6 -7,-11 -10,-17zm99 156l1 0 0 0 -1 0zm212 283l0 0 1 0 -1 0zm237 261l1 0 0 1 -1 -1zm262 238l130 102 0 0 -130 -102zm4078 -6454l0 0zm30 -19l0 0zm53 -27l0 0zm21 -8l0 0zm33 -11l0 0zm11 -3l0 0zm22 -6l0 0zm45 -7l0 0zm22 -2l0 0zm3731 4839l0 0zm-3564 -4820l0 0zm73 29l0 0zm1868 2568l2 3 0 0 -2 -3zm4 6l2 2 -1 -1 -1 -1zm-2 -2l2 1m-12 -16l0 0 0 1 1 1 1 1 0 1 1 1 0 0 0 0 0 0 1 2 0 0 1 0 0 0 3 4 0 0 0 0 0 0 0 1 2 2 0 1 2 2 5 7 3 3 1 2 3 5 447 605c66,90 132,179 198,268l310 419 0 1 1 1 4 6 0 0 30 40 218 295 467 632 146 198m-1837 -2488l4 5m-11 -14l0 0 1 1 0 1 0 0 1 1 0 0 1 2 1 0 2 4 0 0 3 4 3 3 967 1310 4 6 11 14 131 178 106 143 613 830m-1843 -2496l0 1 1 1 0 0 1 2 0 0m1 0l2 4 0 0m10 13l4 5m-18 -24l0 0 1 2m13 17l-10 -13m-5 -7l1 0 0 1 0 1 1 1 1 0 2 4m973 1317l865 1171m0 0l-861 -1165m-980 -1327l0 0 -1 -1 0 0 0 -1m1229 1664l-252 -341 -838 -1134 -122 -165 -2 -4 -11 -14 0 0 0 0 -3 -4m1128 1527l-143 -194 -1 -1 144 195zm-1127 -1527l0 1 0 0 0 0 1 2 0 0 1 1 0 0 0 0 938 1270 866 1173 34 45m0 0l-1839 -2489 1 1 926 1254m-926 -1254l1 1 0 0 0 0 1 2 0 0 3 5 3 6 4 5 3 5 3 6 3 5 3 6 3 5 1808 2448m-1835 -2494l0 0m-541 -2879l0 0zm12 -4l0 0zm11 -4l0 0zm11 -3l0 0zm12 -3l0 0zm23 -5l0 0zm11 -3l0 0zm35 -4l0 0zm11 -1l0 0zm35 -1l0 0zm45 2l0 0zm11 1l0 0zm45 8l0 0zm22 6l0 0zm73 27l0 0z"/>
   <path class="fil0" d="M3367 4815c309,0 560,251 560,560 0,309 -251,560 -560,560 -310,0 -561,-251 -561,-560 0,-309 251,-560 561,-560zm6653 1832c161,713 -208,1235 -889,1339 -719,110 -736,-893 -1779,-540 605,2050 3861,1699 3873,-620 0,-4 0,-7 0,-11l0 -2937c0,-257 -210,-468 -467,-468 -257,0 -468,211 -468,468l5 1583c0,0 -966,-2650 -1039,-2851 -1,-4 -3,-7 -4,-11 -2,-4 -3,-8 -5,-11 -1,-4 -3,-8 -4,-11 -2,-4 -4,-7 -5,-11 -2,-3 -4,-7 -6,-10 -2,-4 -3,-7 -5,-11 -2,-3 -4,-7 -6,-10 -2,-3 -4,-7 -6,-10 -2,-3 -4,-6 -6,-10 -2,-3 -4,-6 -7,-9 -2,-3 -4,-7 -6,-10 -2,-3 -5,-6 -7,-9 -2,-3 -5,-6 -7,-9 -3,-3 -5,-6 -7,-9 -3,-3 -5,-6 -8,-8 -2,-3 -5,-6 -8,-9 -2,-3 -5,-5 -7,-8 -3,-3 -6,-5 -8,-8 -3,-3 -6,-5 -9,-8 -2,-2 -5,-5 -8,-7 -3,-3 -6,-5 -9,-8 -3,-2 -5,-5 -8,-7 -3,-2 -6,-5 -9,-7 -3,-2 -6,-4 -9,-7 -3,-2 -6,-4 -10,-6 -3,-2 -6,-4 -9,-6 -3,-2 -6,-4 -9,-6 -4,-2 -7,-4 -10,-6 -3,-2 -6,-4 -10,-6 -3,-2 -6,-3 -10,-5 -3,-2 -6,-4 -10,-5l0 0c-3,-2 -6,-4 -10,-5l0 0c-3,-2 -7,-3 -10,-5 -3,-1 -7,-3 -10,-4 -4,-2 -7,-3 -11,-4 -3,-2 -7,-3 -10,-4 -4,-1 -7,-3 -11,-4 -3,-1 -7,-2 -11,-3 -3,-1 -7,-2 -10,-3l0 0c-4,-1 -8,-2 -11,-3 -4,-1 -8,-2 -11,-3l0 0c-4,-1 -8,-1 -11,-2 -4,-1 -8,-2 -11,-2 -4,-1 -8,-1 -12,-2 -3,-1 -7,-1 -11,-2l0 0c-4,0 -7,0 -11,-1l0 0c-4,0 -8,-1 -11,-1 -4,0 -8,0 -12,-1 -3,0 -7,0 -11,0 -4,0 -8,0 -11,0l0 0c-4,0 -8,0 -12,0 -4,0 -8,0 -11,0 -4,0 -8,1 -12,1l0 0c-4,0 -8,0 -11,1l0 0c-4,0 -8,1 -12,1 -4,1 -8,1 -11,2l0 0c-4,0 -8,1 -12,1l0 0c-4,1 -7,2 -11,3l0 0c-4,0 -8,1 -12,2l0 0c-4,1 -7,2 -11,3l0 0c-4,1 -8,2 -12,3l0 0c-3,1 -7,2 -11,3l0 0c-4,1 -8,3 -11,4l0 0c-4,1 -8,2 -12,4l0 0c-241,88 -367,357 -279,599l693 1905 154 421c-8,-14 -16,-29 -25,-43l0 0 -1 -2 0 0 0 0 -1 -1 0 0 -1 -1 0 0 -1 -2 0 0 0 0 0 -1 -1 0 0 0 -1 -1 0 0 0 -1 0 0 -1 -1 0 0 0 -1 0 0 -1 -1 0 0 -1 -1 0 0 0 -1 0 0 -1 0 -244 -350 -1441 -2057c-2,-3 -5,-7 -7,-10 -2,-3 -5,-6 -7,-9 -3,-3 -5,-7 -8,-10 -2,-3 -5,-6 -7,-9 -3,-3 -5,-6 -8,-8 -3,-3 -5,-6 -8,-9 -3,-3 -5,-6 -8,-8 -3,-3 -6,-6 -9,-8 -2,-3 -5,-6 -8,-8 -3,-3 -6,-5 -9,-8 -3,-2 -6,-5 -9,-7 -3,-3 -6,-5 -9,-7 -3,-3 -6,-5 -9,-7 -3,-3 -6,-5 -9,-7 -3,-2 -6,-4 -10,-6 -3,-2 -6,-4 -9,-6 -3,-2 -7,-4 -10,-6 -3,-2 -6,-4 -10,-6 -3,-2 -6,-4 -10,-5 -3,-2 -6,-4 -10,-6l0 0c-3,-1 -7,-3 -10,-5 -3,-1 -7,-3 -10,-4 -4,-2 -7,-3 -11,-5 -3,-1 -7,-2 -10,-4 -4,-1 -7,-2 -11,-4 -3,-1 -7,-2 -10,-3 -4,-1 -7,-3 -11,-4l0 0c-4,-1 -7,-2 -11,-3 -3,-1 -7,-2 -11,-3 -3,-1 -7,-1 -11,-2 -3,-1 -7,-2 -11,-3 -3,0 -7,-1 -11,-2 -3,0 -7,-1 -11,-1 -3,-1 -7,-2 -11,-2 -4,0 -7,-1 -11,-1 -4,-1 -7,-1 -11,-1 -4,-1 -8,-1 -11,-1 -4,0 -8,0 -12,-1 -3,0 -7,0 -11,0 -4,0 -7,0 -11,0 -4,0 -8,0 -11,1 -4,0 -8,0 -12,0l0 0c-3,0 -7,1 -11,1 -4,0 -7,1 -11,1l0 0c-4,1 -8,1 -11,2 -4,0 -8,1 -12,1 -3,1 -7,1 -11,2 -4,1 -7,2 -11,2l0 0c-4,1 -7,2 -11,3l0 0c-4,1 -7,2 -11,3l0 0c-4,1 -7,2 -11,3l0 0c-4,1 -7,2 -11,3 -4,1 -7,2 -11,4 -4,1 -7,2 -11,4l0 0c-3,1 -7,2 -11,4 -3,1 -7,3 -10,4l0 0c-4,2 -7,3 -11,5 -4,2 -7,3 -11,5l0 0c-3,2 -7,3 -10,5l0 0c-3,2 -7,4 -10,6l0 0c-4,2 -7,4 -11,6l0 0c-3,2 -6,4 -10,6l0 0c-3,2 -6,4 -10,6l0 0c-3,3 -6,5 -10,7l0 0c-41,29 -77,64 -105,103 -497,-231 -1050,-360 -1633,-360 -2139,0 -3873,1734 -3873,3872 0,2139 1734,3873 3873,3873 1229,0 2324,-572 3034,-1465 -55,-36 -108,-73 -159,-113 -674,843 -1711,1384 -2875,1384 -2032,0 -3679,-1647 -3679,-3679 0,-2031 1647,-3678 3679,-3678 554,0 1080,123 1551,342 -28,125 -6,260 73,372l1320 1886c-632,466 -963,1442 -722,2188 1063,-145 422,-958 1103,-1397 562,-362 1388,-203 1579,642zm-3155 -1832c310,0 560,251 560,560 0,309 -250,560 -560,560 -309,0 -560,-251 -560,-560 0,-309 251,-560 560,-560zm-193 2456c-303,590 -890,980 -1556,980 -666,0 -1253,-390 -1556,-980l-8 -15 -16 -32c-34,-69 -63,-141 -141,-141 -91,0 -165,86 -125,176l36 80c320,712 1028,1171 1810,1171 782,0 1489,-459 1809,-1171l37 -80c40,-90 -34,-176 -126,-176 -77,0 -106,72 -141,141l-15 32 -8 15z"/>
  </g>
  <path class="fil2" d="M0 14408c0,-327 88,-583 264,-768 176,-185 403,-277 681,-277 182,0 346,43 492,130 146,87 258,208 334,363 77,156 116,332 116,529 0,199 -41,378 -122,536 -80,158 -195,277 -343,358 -148,81 -308,121 -479,121 -186,0 -351,-45 -498,-134 -146,-90 -257,-212 -332,-367 -75,-154 -113,-318 -113,-491zm270 4c0,238 64,424 191,561 128,136 288,204 481,204 196,0 357,-68 485,-206 126,-138 190,-333 190,-587 0,-160 -27,-300 -82,-419 -54,-120 -133,-212 -237,-278 -105,-66 -222,-99 -352,-99 -184,0 -343,64 -476,190 -133,127 -200,338 -200,634z"/>
  <polygon id="1" class="fil2" points="2193,15367 2193,13396 2435,13396 2435,14519 3008,13938 3321,13938 2776,14469 3376,15367 3078,15367 2603,14637 2435,14801 2435,15367 "/>
  <path id="2" class="fil2" d="M4502 15188c-90,77 -176,131 -259,162 -84,32 -173,48 -268,48 -157,0 -278,-38 -362,-115 -85,-76 -127,-174 -127,-293 0,-70 16,-133 48,-191 32,-58 74,-104 125,-139 52,-35 110,-61 175,-79 47,-13 119,-25 215,-37 196,-23 340,-51 433,-83 1,-33 1,-54 1,-63 0,-98 -23,-167 -69,-207 -62,-55 -154,-82 -276,-82 -114,0 -199,20 -253,60 -55,40 -95,111 -121,212l-237 -33c22,-101 57,-183 107,-246 50,-62 121,-110 215,-144 93,-33 202,-50 325,-50 122,0 221,14 298,43 76,29 133,65 169,108 35,44 61,99 75,166 8,41 12,115 12,222l0 321c0,225 5,367 15,427 10,60 30,117 60,172l-254 0c-24,-51 -40,-110 -47,-179zm-19 -537c-88,36 -220,66 -396,91 -101,14 -171,31 -213,48 -41,18 -73,45 -95,78 -23,35 -34,73 -34,115 0,64 24,118 73,160 50,43 121,65 215,65 93,0 177,-21 250,-61 72,-41 126,-96 160,-167 26,-54 39,-134 39,-240l1 -89z"/>
  <path id="3" class="fil2" d="M5089 15917l-27 -224c53,14 99,21 139,21 54,0 97,-9 129,-27 33,-18 59,-43 80,-75 15,-24 40,-84 74,-181 4,-13 11,-33 21,-59l-542 -1434 259 0 298 825c39,105 73,215 104,330 28,-108 61,-216 100,-321l305 -834 241 0 -540 1454c-58,157 -104,264 -136,323 -43,80 -93,138 -148,175 -56,37 -123,56 -200,56 -47,0 -99,-10 -157,-29z"/>
  <polygon id="4" class="fil2" points="6497,15367 6497,13396 7852,13396 7852,13729 6896,13729 6896,14197 7722,14197 7722,14530 6896,14530 6896,15367 "/>
  <path id="5" class="fil2" d="M8457 14379l-341 -61c38,-139 105,-243 199,-310 94,-67 234,-100 419,-100 169,0 295,20 377,59 82,40 141,91 174,152 34,62 51,174 51,339l-6 440c0,126 6,218 18,278 12,60 34,123 67,191l-374 0c-10,-24 -22,-61 -36,-110 -6,-22 -11,-37 -14,-44 -64,64 -133,111 -206,142 -74,32 -152,48 -235,48 -146,0 -262,-40 -346,-120 -85,-79 -127,-180 -127,-302 0,-80 19,-152 58,-216 38,-63 92,-111 162,-145 69,-33 169,-63 300,-88 176,-33 299,-64 367,-93l0 -38c0,-73 -18,-126 -54,-157 -36,-31 -104,-47 -204,-47 -67,0 -119,13 -157,40 -38,27 -68,74 -92,142zm507 305c-48,16 -125,36 -230,58 -105,23 -174,45 -206,66 -49,35 -74,79 -74,133 0,53 20,99 60,137 39,39 89,58 150,58 68,0 133,-22 195,-67 46,-34 76,-76 90,-125 10,-32 15,-94 15,-184l0 -76z"/>
  <path id="6" class="fil2" d="M10953 14362l-372 66c-12,-74 -41,-129 -85,-167 -45,-37 -102,-56 -173,-56 -94,0 -169,33 -225,98 -56,65 -84,174 -84,327 0,170 28,289 85,360 57,70 133,105 229,105 71,0 130,-21 175,-62 46,-41 78,-111 97,-211l372 63c-39,171 -112,300 -222,387 -109,88 -255,131 -439,131 -209,0 -375,-66 -499,-198 -125,-132 -187,-314 -187,-548 0,-236 63,-420 187,-552 124,-132 293,-197 505,-197 174,0 312,37 415,112 102,75 176,189 221,342z"/>
  <path id="7" class="fil2" d="M12066 14916l377 63c-48,138 -125,243 -229,316 -105,72 -235,108 -392,108 -248,0 -432,-81 -551,-244 -94,-130 -142,-294 -142,-493 0,-237 62,-423 186,-557 123,-134 280,-201 469,-201 212,0 380,70 503,210 122,141 181,356 175,646l-944 0c2,112 33,199 91,262 58,62 130,94 217,94 59,0 108,-17 148,-49 41,-32 71,-84 92,-155zm22 -383c-3,-110 -31,-193 -85,-250 -53,-58 -119,-86 -196,-86 -82,0 -150,30 -203,90 -54,61 -80,143 -79,246l563 0z"/>
 </g>
</svg>
