<?xml version="1.0" encoding="UTF-8"?>
<!DOCTYPE svg PUBLIC "-//W3C//DTD SVG 1.1//EN" "http://www.w3.org/Graphics/SVG/1.1/DTD/svg11.dtd">
<!-- Creator: CorelDRAW X7 -->
<svg xmlns="http://www.w3.org/2000/svg" xml:space="preserve" width="65.0687mm" height="65.0687mm" version="1.1" style="shape-rendering:geometricPrecision; text-rendering:geometricPrecision; image-rendering:optimizeQuality; fill-rule:evenodd; clip-rule:evenodd"
viewBox="0 0 2188 2188"
 xmlns:xlink="http://www.w3.org/1999/xlink">
 <defs>
  <style type="text/css">
   <![CDATA[
    .fil1 {fill:#2B2A29}
    .fil0 {fill:#00A0E3}
   ]]>
  </style>
    <mask id="id0">
  <linearGradient id="id1" gradientUnits="userSpaceOnUse" x1="308.576" y1="349.798" x2="2131.46" y2="2242.05">
   <stop offset="0" style="stop-opacity:1; stop-color:white"/>
   <stop offset="0.0509804" style="stop-opacity:0.501961; stop-color:white"/>
   <stop offset="1" style="stop-opacity:0; stop-color:white"/>
  </linearGradient>
     <rect style="fill:url(#id1)" x="249" y="401" width="1942" height="1790"/>
    </mask>
 </defs>
 <g id="Layer_x0020_1">
  <metadata id="CorelCorpID_0Corel-Layer"/>
  <g id="_335364200">
   <path class="fil0" d="M1928 2188l-1668 0c-143,0 -260,-117 -260,-260l0 -1668c0,-143 117,-260 260,-260l1668 0c143,0 260,117 260,260l0 1668c0,143 -117,260 -260,260zm-1668 -2158l1668 0c126,0 230,103 230,230l0 1668c0,126 -104,230 -230,230l-1668 0c-127,0 -230,-104 -230,-230l0 -1668c0,-127 103,-230 230,-230z"/>
   <path class="fil1" style="mask:url(#id0)" d="M1335 1377l16 -10 142 155 -26 -10 -14 -7 -118 -128zm593 811l-743 0 -694 -539 27 19 27 17 29 17 29 15 30 13 31 12 2 1 -156 -123c108,81 242,130 388,130 204,0 386,-95 504,-243l15 -23c0,0 -1,-1 -1,-1 -57,-39 -103,-98 -126,-176 183,-62 186,114 312,94 120,-18 185,-110 156,-235 -33,-148 -178,-176 -277,-112 -119,77 -7,219 -193,245 -43,-131 15,-302 126,-384l-231 -331c-14,-20 -18,-43 -13,-65l-8 -4 -8 -3 -8 -4 -8 -3 -8 -3 -8 -3 -8 -3 56 23 392 492 2 -25c179,-21 280,265 366,379l1 -2 5 -11 0 -1 0 0 -153 -208 -169 -229 0 0 0 0 0 0 -1 -1 1 1 0 0 0 0 2 3 168 227 1 1 0 1 44 59 107 146 0 0 0 0 0 0 0 0 -107 -146 0 0 -36 -49 -7 -10 -1 0 0 -1 -1 -1 0 0 -13 -17 -76 -103 -77 -104 -2 -3 0 0 0 -1 -1 -1 0 0 0 0 0 0 -1 -1 0 0 0 0 0 0 0 0 0 0 0 0 0 -1 0 0 -1 0 0 0 0 0 0 0 0 0 0 0 0 0 0 -1 0 0 -43 -61 -253 -361 0 0 0 -1 -1 0 0 0 0 0 0 0 0 -1 0 0 617 840 0 0 0 0 0 1 0 0 0 0 0 0 0 0 1 0 7 11 3 -6 11 -31 8 -33 5 -35 2 -37 0 0 0 -1 0 0 0 0 0 0 0 -1 0 0 0 0 0 -3 -164 -235 0 -1 -1 -4 -3 -6 -3 -9 -4 -10 -4 -13 -5 -14 -6 -16 -6 -17 -7 -19 -7 -19 -8 -21 -8 -21 -8 -22 -8 -22 -8 -23 -8 -22 -8 -23 -8 -22 -8 -22 -8 -22 -8 -20 -7 -20 -7 -19 -6 -18 -6 -16 -6 -14 -4 -13 -4 -11 -4 -10 -2 -6 -2 -5 0 0 0 -1 0 0 0 0 0 0 0 0 0 -1 -1 0 0 0 0 0 0 -1 0 0 0 0 0 0 0 -1 0 0 0 0 -1 0 0 -1 0 0 0 0 0 0 0 -1 0 0 0 0 0 0 -1 -1 0 0 0 0 0 0 0 0 0 -1 0 0 0 0 0 0 -1 -1 0 0 0 0 0 0 0 -1 0 0 0 0 0 0 0 0 -1 -1 0 0 0 0 0 0 0 -1 0 0 0 0 0 0 -1 0 0 -1 0 0 0 0 0 0 0 -1 0 0 0 0 -1 0 0 0 0 -1 0 0 0 0 0 0 0 -1 -1 0 0 0 0 0 0 0 0 -1 0 0 0 0 149 228 205 312 0 -301 -1 -8 -1 -8 -2 -8 -3 -7 -3 -8 228 310 0 977c0,94 -51,177 -126,222l-8 -3 -21 -11 -20 -12 -19 -15 -18 -16 -122 -130 -2 5 -2 5 174 186 -9 11 -4 4c-26,9 -54,14 -83,14zm-713 -900c-56,125 -180,205 -317,205 -138,0 -262,-80 -318,-205l-6 -14c-7,-16 6,-31 22,-31 15,0 20,16 27,30 53,105 157,175 275,175 116,0 220,-69 273,-172 7,-15 13,-33 29,-33 16,0 29,15 22,31l-7 14zm-624 -443c54,0 98,44 98,98 0,54 -44,98 -98,98 -55,0 -99,-44 -99,-98 0,-54 44,-98 99,-98zm614 196c-55,0 -99,-44 -99,-98 0,-54 44,-98 99,-98 54,0 98,44 98,98 0,54 -44,98 -98,98zm-340 -581l-1 0 0 0 1 0zm-30 2l-3 0 -4 1c2,-1 5,-1 7,-1zm-29 3l-7 1 -9 2c6,-1 11,-2 16,-3zm-27 5l-11 2 -32 7 -30 9 -30 10 -30 11 -28 13 -28 15 -9 5c62,-35 129,-59 198,-72zm-208 78l-8 4 -6 4c5,-3 9,-6 14,-8zm-30 18l-4 3 -4 2c3,-1 6,-3 8,-5zm-27 19l-2 2 -2 1 4 -3zm-26 20l-1 1 -1 1 2 -2zm-24 21l0 0 -1 1 1 -1zm-23 22l0 0 0 0 0 0zm-138 204l0 1 0 1 0 -2zm-11 29l-1 1 0 2 1 -3zm-10 28l-1 3 -1 4c1,-2 2,-4 2,-7zm-8 30l-1 4 -1 4c0,-2 1,-5 2,-8zm-8 31l-1 4 -1 5c1,-3 2,-6 2,-9zm-6 32l0 4 -1 5m-3 22l0 5 -1 5c1,-3 1,-7 1,-10zm-2 32l-1 6 0 6c0,-4 0,-8 1,-12zm-2 33l0 6 0 7c0,-4 0,-9 0,-13zm1 31l0 8 1 11c-1,-7 -1,-13 -1,-19zm2 29l1 12 4 32 5 32 8 31 8 31 10 30 7 17c-24,-59 -38,-122 -43,-185zm44 187l4 10 3 8c-2,-6 -5,-12 -7,-18zm14 32l3 7 3 5c-2,-4 -4,-8 -6,-12zm15 31l2 4 2 3c-1,-2 -2,-5 -4,-7zm17 30l1 1 1 2c-1,-1 -1,-2 -2,-3zm17 27l0 0 1 0 -1 0zm38 50l0 0 0 0 0 0zm41 45l0 1 0 0 0 -1zm46 42l23 18 0 0 -23 -18zm716 -1132l0 0zm5 -4l0 0zm9 -4l0 0zm4 -2l0 0zm6 -2l0 0zm2 0l0 0zm4 -1l0 0zm7 -1l0 0zm4 -1l0 0zm655 849l0 0zm-625 -845l0 0zm12 5l0 0zm328 450l1 1 -1 0 0 -1zm1 1l0 1 0 -1 0 0zm0 0l0 0m-2 -3l0 0 0 1 0 0 0 0 0 0 0 0 0 0 0 0 0 0 1 0 0 0 0 0 0 1 0 0 0 0 0 0 0 0 0 0 0 1 1 0 0 0 1 1 0 1 0 0 1 1 78 106c12,16 24,32 35,48l54 73 1 0 0 0 0 1 1 0 5 7 38 52 82 111 25 35m-322 -437l1 1m-2 -2l0 0 0 0 0 0 0 0 0 0 0 0 0 0 1 1 0 0 0 0 1 1 0 0 170 230 0 1 2 3 23 31 19 25 107 146m-323 -438l0 0 0 0 0 0 1 0 0 0m0 1l0 0 0 0m2 2l0 1m-3 -4l0 0 0 0m3 4l-2 -3m-1 -1l0 0 0 0 0 0 1 0 0 1 0 0m171 231l151 206m0 0l-151 -205m-172 -233l0 0 0 0 0 0 0 0m216 292l-44 -60 -147 -199 -22 -29 0 0 -2 -3 0 0 0 0 -1 -1m198 268l-25 -34 0 0 25 34zm-197 -267l0 0 0 0 0 0 0 0 0 0 0 0 0 0 0 0 165 223 152 206 5 8m0 0l-322 -437 0 0 162 220m-162 -220l0 0 0 0 0 0 0 1 0 0 1 1 0 1 1 1 1 0 0 1 1 1 0 1 1 1 317 430m-322 -438l0 0m-95 -505l0 0zm2 -1l0 0zm2 0l0 0zm2 -1l0 0zm2 0l0 0zm4 -1l0 0zm2 -1l0 0zm6 -1l0 0zm2 0l0 0zm6 0l0 0zm8 0l0 0zm2 1l0 0zm8 1l0 0zm4 1l0 0zm13 5l0 0z"/>
   <path class="fil0" d="M591 845c54,0 98,44 98,98 0,54 -44,98 -98,98 -55,0 -99,-44 -99,-98 0,-54 44,-98 99,-98zm1167 321c29,125 -36,217 -156,235 -126,20 -129,-156 -312,-94 106,359 678,298 680,-109 0,-1 0,-1 0,-2l0 -516c0,-45 -37,-82 -82,-82 -45,0 -82,37 -82,82l0 278c0,0 -169,-465 -182,-500 0,-1 0,-1 -1,-2 0,-1 0,-1 0,-2 -1,-1 -1,-1 -1,-2 0,0 -1,-1 -1,-2 0,0 -1,-1 -1,-2 0,0 -1,-1 -1,-1 0,-1 -1,-2 -1,-2 0,-1 -1,-1 -1,-2 0,0 -1,-1 -1,-2 0,0 -1,-1 -1,-1 -1,-1 -1,-1 -1,-2 -1,-1 -1,-1 -2,-2 0,0 0,-1 -1,-1 0,-1 -1,-1 -1,-2 -1,0 -1,-1 -1,-1 -1,-1 -1,-1 -2,-2 0,0 -1,-1 -1,-1 -1,-1 -1,-1 -2,-2 0,0 -1,0 -1,-1 0,0 -1,-1 -1,-1 -1,-1 -1,-1 -2,-2 0,0 -1,0 -2,-1 0,0 -1,-1 -1,-1 -1,0 -1,-1 -2,-1 0,-1 -1,-1 -1,-1 -1,-1 -1,-1 -2,-1 0,-1 -1,-1 -2,-2 0,0 -1,0 -1,-1 -1,0 -1,0 -2,-1 -1,0 -1,0 -2,0 0,-1 -1,-1 -1,-1l0 0c-1,-1 -2,-1 -2,-1l0 0c-1,0 -1,-1 -2,-1 -1,0 -1,-1 -2,-1 0,0 -1,0 -2,0 0,-1 -1,-1 -2,-1 0,0 -1,-1 -1,-1 -1,0 -2,0 -2,0 -1,-1 -2,-1 -2,-1l0 0c-1,0 -1,0 -2,0 -1,-1 -1,-1 -2,-1l0 0c-1,0 -1,0 -2,0 -1,0 -1,-1 -2,-1 -1,0 -1,0 -2,0 -1,0 -1,0 -2,0l0 0c0,0 -1,0 -2,-1l0 0c0,0 -1,0 -2,0 0,0 -1,0 -2,0 0,0 -1,0 -2,0 0,0 -1,0 -2,0l0 0c0,0 -1,0 -2,0 0,0 -1,0 -2,0 0,0 -1,0 -2,0l0 0c0,0 -1,0 -2,0l0 0c0,0 -1,1 -2,1 -1,0 -1,0 -2,0l0 0c-1,0 -1,0 -2,0l0 0c-1,0 -1,0 -2,1l0 0c-1,0 -1,0 -2,0l0 0c-1,0 -1,0 -2,1l0 0c-1,0 -1,0 -2,0l0 0c-1,0 -1,0 -2,1l0 0c-1,0 -1,0 -2,0l0 0c-1,1 -1,1 -2,1l0 0c-42,15 -64,63 -49,105l122 334 27 74c-2,-2 -3,-5 -5,-7l0 0 0 -1 0 0 0 0 0 0 0 0 0 0 0 0 0 0 0 0 0 0 0 0 -1 -1 0 0 0 0 0 0 0 0 0 0 0 0 0 0 0 0 0 0 0 0 0 0 0 0 0 0 0 -1 0 0 0 0 -43 -61 -253 -361c0,-1 -1,-1 -1,-2 -1,0 -1,-1 -2,-1 0,-1 0,-2 -1,-2 0,-1 -1,-1 -1,-2 -1,0 -1,-1 -2,-1 0,-1 -1,-1 -1,-2 0,0 -1,-1 -1,-1 -1,-1 -1,-1 -2,-2 0,0 -1,-1 -1,-1 -1,0 -1,-1 -2,-1 0,-1 -1,-1 -1,-2 -1,0 -2,0 -2,-1 -1,0 -1,-1 -2,-1 0,0 -1,-1 -1,-1 -1,-1 -1,-1 -2,-1 -1,-1 -1,-1 -2,-1 0,-1 -1,-1 -1,-1 -1,-1 -1,-1 -2,-1 -1,-1 -1,-1 -2,-1 0,-1 -1,-1 -2,-1l0 0c0,-1 -1,-1 -1,-1 -1,0 -2,-1 -2,-1 -1,0 -1,-1 -2,-1 -1,0 -1,0 -2,-1 0,0 -1,0 -2,0 0,0 -1,-1 -2,-1 0,0 -1,0 -1,0l0 0c-1,-1 -2,-1 -2,-1 -1,0 -2,0 -2,0 -1,-1 -2,-1 -2,-1 -1,0 -1,0 -2,0 -1,0 -1,-1 -2,-1 -1,0 -1,0 -2,0 -1,0 -1,0 -2,0 -1,0 -1,0 -2,-1 -1,0 -1,0 -2,0 0,0 -1,0 -2,0 0,0 -1,0 -2,0 0,0 -1,0 -2,0 0,0 -1,0 -2,0 0,0 -1,0 -2,0 0,0 -1,0 -2,0l0 0c0,0 -1,0 -2,0 0,0 -1,0 -2,1l0 0c0,0 -1,0 -2,0 0,0 -1,0 -2,0 0,0 -1,0 -2,0 0,1 -1,1 -1,1l0 0c-1,0 -2,0 -2,0l0 0c-1,0 -2,1 -2,1l0 0c-1,0 -2,0 -2,0l0 0c-1,0 -2,1 -2,1 -1,0 -2,0 -2,1 -1,0 -1,0 -2,0l0 0c-1,0 -1,1 -2,1 -1,0 -1,0 -2,1l0 0c0,0 -1,0 -2,1 0,0 -1,0 -2,0l0 0c0,1 -1,1 -1,1l0 0c-1,1 -2,1 -2,1l0 0c-1,1 -1,1 -2,1l0 0c-1,1 -1,1 -2,1l0 0c0,1 -1,1 -2,2l0 0c0,0 -1,0 -1,1l0 0c-8,5 -14,11 -19,18 -87,-41 -184,-63 -286,-63 -376,0 -680,304 -680,679 0,375 304,680 680,680 215,0 408,-101 532,-257 -10,-7 -19,-13 -28,-20 -118,148 -300,243 -504,243 -357,0 -646,-289 -646,-646 0,-356 289,-645 646,-645 97,0 189,21 272,60 -5,22 -1,45 13,65l231 331c-111,82 -169,253 -126,384 186,-26 74,-168 193,-245 99,-64 244,-36 277,112zm-553 -321c54,0 98,44 98,98 0,54 -44,98 -98,98 -55,0 -99,-44 -99,-98 0,-54 44,-98 99,-98zm-34 431c-53,103 -157,172 -273,172 -117,0 -220,-69 -273,-172l-2 -3 -2 -5c-7,-13 -12,-25 -25,-25 -16,0 -29,15 -22,31l6 14c56,125 180,205 318,205 137,0 261,-80 317,-205l7 -14c7,-16 -6,-31 -22,-31 -14,0 -19,12 -25,25l-3 5 -1 3z"/>
  </g>
 </g>
</svg>
