<?xml version="1.0" encoding="UTF-8"?>
<!DOCTYPE svg PUBLIC "-//W3C//DTD SVG 1.1//EN" "http://www.w3.org/Graphics/SVG/1.1/DTD/svg11.dtd">
<!-- Creator: CorelDRAW X7 -->
<svg xmlns="http://www.w3.org/2000/svg" xml:space="preserve" width="182.099mm" height="65.0687mm" version="1.1" style="shape-rendering:geometricPrecision; text-rendering:geometricPrecision; image-rendering:optimizeQuality; fill-rule:evenodd; clip-rule:evenodd"
viewBox="0 0 19048 6806"
 xmlns:xlink="http://www.w3.org/1999/xlink">
 <defs>
  <style type="text/css">
   <![CDATA[
    .fil1 {fill:#2B2A29}
    .fil0 {fill:#00A0E3}
    .fil2 {fill:#00A0E3;fill-rule:nonzero}
   ]]>
  </style>
    <mask id="id0">
  <linearGradient id="id1" gradientUnits="userSpaceOnUse" x1="960.008" y1="1088.25" x2="6631.15" y2="6975.23">
   <stop offset="0" style="stop-opacity:1; stop-color:white"/>
   <stop offset="0.0509804" style="stop-opacity:0.501961; stop-color:white"/>
   <stop offset="1" style="stop-opacity:0; stop-color:white"/>
  </linearGradient>
     <rect style="fill:url(#id1)" x="774" y="1247" width="6043" height="5570"/>
    </mask>
 </defs>
 <g id="Layer_x0020_1">
  <metadata id="CorelCorpID_0Corel-Layer"/>
  <g id="_325377552">
   <path class="fil0" d="M5999 6806l-5191 0c-445,0 -808,-363 -808,-807l0 -5191c0,-445 363,-808 808,-808l5191 0c444,0 807,363 807,808l0 5191c0,444 -363,807 -807,807zm-5191 -6712l5191 0c392,0 714,321 714,714l0 5191c0,392 -322,714 -714,714l-5191 0c-393,0 -714,-322 -714,-714l0 -5191c0,-393 321,-714 714,-714z"/>
   <path class="fil1" style="mask:url(#id0)" d="M4152 4283l50 -29 442 481 -80 -32 -43 -21 -369 -399zm1847 2523l-2314 0 -2157 -1677 83 59 86 55 88 51 91 47 94 42 96 38 5 2 -485 -383c336,253 754,403 1207,403 635,0 1201,-295 1569,-755l47 -71c1,-1 -2,-2 -3,-2 -178,-122 -320,-305 -392,-550 569,-193 578,354 971,295 371,-57 573,-342 485,-731 -104,-461 -555,-549 -862,-351 -372,240 -22,683 -602,763 -131,-407 49,-940 394,-1194l-721 -1030c-43,-61 -55,-135 -39,-203l-25 -11 -24 -11 -24 -10 -25 -11 -25 -9 -25 -10 -25 -9 173 71 1219 1533 6 -80c557,-64 873,824 1138,1181l4 -8 16 -34 1 -3 0 0 -476 -646 -526 -712 -1 -1 0 0 -1 -2 0 0 1 2 0 0 0 0 7 9 522 707 2 3 3 3 135 183 334 454 0 0 1 0 0 -1 0 0 -335 -452 0 -1 -112 -152 -23 -31 -2 -2 -1 -1 -1 -2 -1 -1 -40 -54 -237 -321 -238 -323 -6 -8 -1 -1 -1 -2 -3 -3 0 0 0 -1 -1 -1 -1 -2 0 0 0 0 0 0 0 0 -1 -1 -1 -1 0 0 0 0 -1 -1 0 0 0 0 0 -1 -1 0 0 0 0 -1 -1 -1 0 0 -133 -191 -787 -1123 0 -1 -1 0 0 -1 -1 -1 0 0 -1 -1 0 0 -1 -1 1919 2613 1 0 0 1 1 0 0 1 0 0 1 1 0 0 0 1 24 34 10 -20 33 -96 25 -103 15 -109 6 -116 0 0 0 -1 0 -1 0 -1 0 0 0 -1 0 -1 0 0 0 -10 -508 -730 -1 -4 -5 -12 -7 -19 -10 -27 -12 -33 -14 -39 -16 -44 -18 -49 -19 -54 -21 -58 -23 -60 -23 -64 -24 -66 -25 -68 -25 -70 -25 -70 -26 -70 -26 -70 -25 -70 -25 -68 -24 -67 -24 -65 -22 -61 -22 -59 -19 -54 -19 -51 -16 -45 -15 -41 -13 -34 -10 -29 -8 -21 -5 -14 0 -1 -1 -1 0 0 0 -1 0 -1 -1 -1 0 -1 0 0 -1 -1 0 -1 0 -1 -1 0 0 -1 0 -1 0 -1 -1 0 0 -1 0 -1 -1 -1 0 0 0 -1 -1 -1 0 -1 0 0 -1 -1 0 -1 0 0 -1 -1 0 -1 0 -1 -1 0 0 -1 0 -1 -1 -1 0 0 -1 -1 0 -1 0 0 -1 -1 0 -1 0 -1 -1 0 0 -1 0 -1 -1 0 0 -1 -1 -1 0 -1 0 0 -1 -1 0 -1 -1 0 0 -1 0 -1 -1 0 0 -1 -1 -1 0 0 0 -1 -1 -1 0 0 -1 -1 0 -1 0 -1 -1 0 0 -1 -1 -1 0 0 -1 -1 0 -1 0 0 -1 -1 0 -1 -1 0 466 710 636 970 0 -935 -2 -26 -3 -25 -7 -25 -8 -23 -11 -23 709 964 0 3040c0,292 -157,549 -390,691l-27 -11 -65 -33 -63 -39 -59 -44 -54 -51 -379 -405 -7 15 -8 17 543 577 -30 36 -10 12c-81,27 -168,42 -258,42zm-2218 -2799c-175,388 -561,639 -988,639 -427,0 -813,-251 -988,-639l-20 -44c-22,-49 19,-96 69,-96 47,0 63,51 85,94 165,327 487,543 854,543 363,0 684,-213 849,-535 24,-46 41,-102 90,-102 50,0 91,47 68,96l-19 44zm-1943 -1379c169,0 306,137 306,306 0,169 -137,306 -306,306 -169,0 -306,-137 -306,-306 0,-169 137,-306 306,-306zm1910 612c-169,0 -306,-137 -306,-306 0,-169 137,-306 306,-306 169,0 306,137 306,306 0,169 -137,306 -306,306zm-1057 -1810l-2 0 -2 0 4 0zm-93 7l-10 0 -13 2c7,-1 15,-2 23,-2zm-90 10l-21 3 -28 5c16,-3 33,-5 49,-8zm-83 14l-37 7 -97 22 -95 27 -94 32 -91 36 -89 40 -86 44 -29 17c193,-109 402,-184 618,-225zm-649 243l-24 14 -18 11c14,-9 28,-17 42,-25zm-92 57l-14 9 -11 8c9,-6 17,-12 25,-17zm-85 60l-8 5 -5 4 13 -9zm-80 62l-4 3 -2 2 6 -5zm-75 65l-1 1 -2 1 3 -2zm-71 67l0 0 0 0 0 0zm-430 637l0 1 -2 4 2 -5zm-34 87l-2 6 -3 7 5 -13zm-31 90l-3 9 -3 11c2,-7 4,-13 6,-20zm-27 93l-3 11 -3 14c2,-9 4,-17 6,-25zm-22 95l-3 13 -3 15c2,-9 4,-19 6,-28zm-19 99l-2 13 -2 15m-9 70l-2 16 -1 15c1,-10 2,-20 3,-31zm-8 101l-2 17 0 18c0,-12 1,-24 2,-35zm-4 100l0 20 0 22c0,-14 0,-28 0,-42zm2 97l0 26 3 33c-2,-20 -3,-39 -3,-59zm5 91l3 37 13 101 18 99 22 97 27 95 32 94 20 52c-73,-185 -118,-379 -135,-575zm137 580l14 34 10 24c-8,-19 -16,-39 -24,-58zm43 100l11 23 8 17c-6,-14 -12,-27 -19,-40zm49 98l6 11 6 11c-4,-8 -8,-15 -12,-22zm52 92l2 3 4 6c-2,-3 -4,-6 -6,-9zm55 85l0 0 0 0 0 0zm115 154l0 0 0 0 0 0zm130 143l0 0 0 0 0 0zm142 130l71 55 0 0 -71 -55zm2227 -3523l0 0zm16 -11l0 0zm29 -15l0 0zm12 -4l0 0zm17 -6l0 0zm6 -2l0 0zm13 -3l0 0zm24 -4l0 0zm12 -1l0 0zm2037 2642l0 0zm-1946 -2631l0 0zm40 16l0 0zm1020 1401l1 2 0 0 -1 -2zm2 3l1 2 -1 -1 0 -1zm-1 -1l1 1m-7 -9l0 0 1 1 0 0 0 1 1 0 0 1 0 0 0 0 0 0 1 1 0 0 0 0 0 0 2 2 0 0 0 0 0 0 0 1 1 1 0 0 1 2 3 3 1 2 1 1 2 3 244 330c36,49 72,98 108,147l169 228 0 1 0 0 3 3 0 0 16 22 119 161 255 345 80 108m-1003 -1358l2 3m-6 -8l0 0 0 1 1 0 0 0 0 1 0 0 1 1 0 0 1 2 1 0 1 2 1 2 528 715 3 3 5 8 72 97 58 78 335 454m-1007 -1363l1 0 0 1 0 0 1 1 0 0m0 0l2 2 0 0m5 7l2 3m-10 -13l0 0 1 1m7 10l-5 -8m-3 -4l0 1 0 0 0 0 1 1 0 0 2 2m530 719l472 640m0 0l-469 -637m-535 -724l0 0 -1 -1 0 0 0 0m671 908l-138 -186 -457 -619 -66 -90 -2 -2 -6 -8 0 0 0 0 -1 -2m615 833l-78 -105 0 -1 78 106zm-615 -833l0 0 0 1 0 0 1 1 0 0 0 0 0 0 0 0 512 693 473 641 18 25m0 0l-1003 -1359 0 0 506 685m-506 -685l1 1 0 0 0 0 0 1 0 0 2 3 2 3 2 3 1 2 2 3 2 3 1 4 2 3 987 1336m-1002 -1362l0 0m-295 -1572l0 0zm6 -2l0 0zm6 -2l0 0zm7 -2l0 0zm6 -1l0 0zm12 -3l0 0zm7 -1l0 0zm19 -3l0 0zm6 0l0 0zm19 -1l0 0zm24 1l0 0zm7 1l0 0zm24 4l0 0zm12 3l0 0zm40 15l0 0z"/>
   <path class="fil0" d="M1838 2628c169,0 306,137 306,306 0,169 -137,306 -306,306 -169,0 -306,-137 -306,-306 0,-169 137,-306 306,-306zm3632 1001c88,389 -114,674 -485,731 -393,59 -402,-488 -971,-295 330,1119 2107,927 2114,-339 0,-2 0,-3 0,-5l0 -1604c0,-141 -115,-255 -255,-255 -141,0 -256,114 -255,255l2 864c0,0 -527,-1446 -567,-1556 -1,-2 -2,-4 -2,-6 -1,-2 -2,-4 -3,-6 -1,-2 -2,-4 -2,-6 -1,-2 -2,-4 -3,-6 -1,-2 -2,-4 -3,-6 -1,-2 -2,-4 -3,-6 -1,-1 -2,-3 -3,-5 -1,-2 -2,-4 -3,-6 -2,-1 -3,-3 -4,-5 -1,-2 -2,-3 -3,-5 -2,-2 -3,-4 -4,-5 -1,-2 -2,-4 -4,-5 -1,-2 -2,-4 -4,-5 -1,-2 -2,-3 -4,-5 -1,-2 -2,-3 -4,-5 -1,-1 -2,-3 -4,-4 -1,-2 -3,-3 -4,-5 -2,-1 -3,-3 -4,-4 -2,-2 -3,-3 -5,-4 -1,-2 -3,-3 -5,-5 -1,-1 -3,-2 -4,-4 -2,-1 -3,-2 -5,-4 -2,-1 -3,-2 -5,-3 -1,-2 -3,-3 -5,-4 -1,-1 -3,-2 -5,-4 -1,-1 -3,-2 -5,-3 -2,-1 -3,-2 -5,-3 -2,-1 -4,-2 -5,-3 -2,-1 -4,-2 -6,-3 -1,-1 -3,-2 -5,-3 -2,-1 -4,-2 -6,-3l0 0c-1,-1 -3,-2 -5,-3l0 0c-2,-1 -4,-2 -6,-2 -1,-1 -3,-2 -5,-3 -2,-1 -4,-1 -6,-2 -2,-1 -4,-1 -6,-2 -2,-1 -4,-1 -6,-2 -1,-1 -3,-1 -5,-2 -2,-1 -4,-1 -6,-2l0 0c-2,0 -4,-1 -6,-1 -2,-1 -4,-1 -6,-2l0 0c-2,0 -4,-1 -6,-1 -2,0 -4,-1 -6,-1 -2,0 -4,-1 -6,-1 -2,0 -4,-1 -6,-1l0 0c-3,0 -5,0 -7,-1l0 0c-2,0 -4,0 -6,0 -2,0 -4,0 -6,-1 -2,0 -4,0 -6,0 -2,0 -4,0 -6,0l0 0c-3,0 -5,0 -7,0 -2,0 -4,0 -6,0 -2,0 -4,1 -6,1l0 0c-2,0 -4,0 -6,0l0 0c-3,0 -5,1 -7,1 -2,0 -4,0 -6,1l0 0c-2,0 -4,0 -6,1l0 0c-2,0 -4,1 -7,1l0 0c-2,0 -4,1 -6,1l0 0c-2,1 -4,1 -6,2l0 0c-2,0 -4,1 -6,1l0 0c-2,1 -4,2 -7,2l0 0c-2,1 -4,2 -6,2l0 0c-2,1 -4,2 -6,2l0 0c-132,48 -200,196 -152,327l378 1040 84 231c-4,-9 -9,-17 -14,-24l0 0 0 -1 0 0 0 0 -1 -1 0 0 0 0 0 0 -1 -1 0 0 0 -1 0 0 0 0 0 0 -1 -1 0 0 0 0 0 0 0 -1 0 0 -1 0 0 0 0 -1 0 0 0 0 0 0 -1 -1 0 0 0 0 -133 -191 -787 -1123c-1,-2 -2,-3 -4,-5 -1,-2 -2,-4 -4,-5 -1,-2 -2,-4 -4,-5 -1,-2 -2,-4 -4,-5 -1,-2 -3,-4 -4,-5 -2,-2 -3,-3 -5,-5 -1,-1 -2,-3 -4,-4 -2,-2 -3,-3 -5,-5 -1,-1 -3,-3 -4,-4 -2,-2 -3,-3 -5,-4 -2,-2 -3,-3 -5,-4 -1,-2 -3,-3 -5,-4 -1,-1 -3,-3 -5,-4 -1,-1 -3,-2 -5,-4 -2,-1 -3,-2 -5,-3 -2,-1 -3,-2 -5,-3 -2,-2 -4,-3 -6,-4 -1,-1 -3,-2 -5,-3 -2,-1 -3,-2 -5,-3 -2,-1 -4,-2 -6,-2l0 0c-2,-1 -4,-2 -5,-3 -2,-1 -4,-2 -6,-3 -2,-1 -4,-1 -6,-2 -2,-1 -3,-2 -5,-2 -2,-1 -4,-2 -6,-3 -2,0 -4,-1 -6,-1 -2,-1 -4,-2 -6,-2l0 0c-2,-1 -4,-1 -6,-2 -2,-1 -4,-1 -6,-2 -2,0 -4,-1 -6,-1 -2,0 -4,-1 -6,-1 -2,-1 -4,-1 -6,-1 -2,-1 -4,-1 -6,-1 -2,-1 -4,-1 -6,-1 -2,-1 -4,-1 -6,-1 -2,0 -4,0 -6,-1 -2,0 -4,0 -6,0 -2,0 -4,0 -6,0 -2,0 -4,0 -6,0 -2,0 -4,0 -6,0 -3,0 -5,0 -7,0 -2,0 -4,0 -6,0l0 0c-2,0 -4,0 -6,1 -2,0 -4,0 -6,0l0 0c-2,0 -4,1 -6,1 -2,0 -4,1 -6,1 -2,0 -4,1 -6,1 -2,0 -4,1 -6,1l0 0c-3,1 -5,1 -7,2l0 0c-2,0 -4,1 -6,1l0 0c-2,1 -4,1 -6,2l0 0c-2,0 -4,1 -6,2 -2,0 -4,1 -6,2 -2,0 -4,1 -5,2l0 0c-2,0 -4,1 -6,2 -2,1 -4,2 -6,2l0 0c-2,1 -4,2 -6,3 -2,1 -4,2 -6,3l0 0c-2,1 -4,2 -5,3l0 0c-2,1 -4,2 -6,3l0 0c-2,1 -4,2 -6,3l0 0c-2,1 -3,2 -5,3l0 0c-2,1 -4,3 -6,4l0 0c-2,1 -3,2 -5,4l0 0c-23,15 -42,34 -58,56 -271,-127 -573,-197 -891,-197 -1168,0 -2114,946 -2114,2114 0,1168 946,2114 2114,2114 671,0 1269,-312 1656,-800 -30,-19 -59,-40 -87,-61 -368,460 -934,755 -1569,755 -1109,0 -2008,-899 -2008,-2008 0,-1109 899,-2008 2008,-2008 302,0 589,67 847,187 -16,68 -4,142 39,203l721 1030c-345,254 -525,787 -394,1194 580,-80 230,-523 602,-763 307,-198 758,-110 862,351zm-1722 -1001c169,0 306,137 306,306 0,169 -137,306 -306,306 -169,0 -306,-137 -306,-306 0,-169 137,-306 306,-306zm-106 1341c-165,322 -486,535 -849,535 -364,0 -684,-213 -850,-535l-4 -8 -8 -17c-19,-38 -35,-77 -77,-77 -50,0 -91,47 -69,96l20 44c175,388 561,639 988,639 427,0 813,-251 988,-639l19 -44c23,-49 -18,-96 -68,-96 -42,0 -58,39 -77,77l-8 17 -5 8z"/>
  </g>
  <path class="fil2" d="M7798 3181c0,-295 80,-526 239,-693 158,-167 363,-250 614,-250 164,0 312,39 444,117 132,79 232,188 302,328 69,140 104,299 104,477 0,180 -37,342 -110,484 -73,142 -176,250 -309,323 -134,73 -278,110 -433,110 -167,0 -317,-41 -449,-122 -132,-80 -232,-191 -300,-331 -68,-139 -102,-287 -102,-443zm244 4c0,214 57,383 173,506 115,123 259,184 433,184 178,0 323,-62 438,-186 114,-124 171,-301 171,-529 0,-145 -24,-271 -73,-379 -49,-108 -121,-191 -215,-250 -94,-60 -200,-89 -317,-89 -167,0 -310,57 -430,171 -120,114 -180,305 -180,572z"/>
  <polygon id="1" class="fil2" points="9777,4047 9777,2268 9996,2268 9996,3281 10512,2757 10795,2757 10303,3236 10845,4047 10575,4047 10147,3388 9996,3535 9996,4047 "/>
  <path id="2" class="fil2" d="M11861 3885c-81,69 -160,118 -235,146 -74,29 -155,43 -241,43 -142,0 -251,-34 -327,-103 -76,-69 -114,-157 -114,-265 0,-63 14,-120 43,-172 29,-53 67,-94 113,-125 47,-32 99,-56 157,-72 44,-11 109,-22 195,-33 177,-20 307,-46 390,-75 1,-30 1,-49 1,-56 0,-89 -20,-152 -62,-188 -56,-49 -139,-74 -249,-74 -103,0 -179,18 -228,54 -49,36 -85,100 -109,192l-214 -30c20,-91 52,-165 96,-222 45,-56 110,-99 194,-130 84,-30 182,-45 293,-45 111,0 200,13 270,39 68,26 119,58 152,97 32,40 55,90 68,150 7,37 11,104 11,200l0 290c0,203 4,331 13,385 9,54 27,106 54,156l-229 0c-22,-46 -36,-100 -42,-162zm-18 -484c-79,32 -198,59 -357,82 -91,13 -154,27 -192,43 -37,16 -66,40 -86,71 -20,31 -30,65 -30,103 0,58 21,106 66,145 44,38 109,58 194,58 84,0 159,-19 224,-55 66,-37 114,-87 145,-150 24,-50 35,-122 35,-218l1 -79z"/>
  <path id="3" class="fil2" d="M12391 4543l-25 -203c48,13 89,20 125,20 49,0 88,-8 117,-25 29,-16 53,-38 72,-67 13,-22 36,-77 66,-164 4,-12 11,-29 20,-53l-490 -1294 234 0 269 745c35,94 66,193 94,298 25,-99 55,-196 90,-291l275 -752 218 0 -487 1312c-53,141 -94,238 -123,292 -39,71 -84,124 -134,158 -51,33 -111,50 -180,50 -42,0 -90,-9 -141,-26z"/>
  <polygon id="4" class="fil2" points="13660,4047 13660,2268 14883,2268 14883,2568 14021,2568 14021,2991 14766,2991 14766,3291 14021,3291 14021,4047 "/>
  <path id="5" class="fil2" d="M15429 3155l-308 -55c35,-126 95,-219 180,-280 85,-60 211,-90 378,-90 152,0 266,18 340,54 75,36 127,81 157,137 31,55 46,157 46,305l-5 398c0,113 5,196 16,250 11,54 31,112 61,173l-338 0c-9,-23 -20,-56 -33,-100 -5,-20 -9,-33 -12,-39 -58,57 -120,99 -186,128 -66,29 -137,43 -212,43 -132,0 -236,-36 -312,-108 -77,-72 -115,-163 -115,-273 0,-72 18,-137 53,-195 34,-56 83,-100 146,-130 62,-31 153,-57 271,-80 159,-30 269,-58 331,-84l0 -34c0,-66 -17,-113 -49,-142 -33,-28 -94,-42 -184,-42 -61,0 -108,12 -142,36 -34,24 -62,67 -83,128zm458 276c-44,14 -113,31 -208,52 -94,20 -157,40 -186,59 -44,32 -66,72 -66,120 0,48 18,89 53,124 36,35 81,52 136,52 61,0 120,-20 176,-60 41,-31 68,-69 81,-113 9,-29 14,-85 14,-167l0 -67z"/>
  <path id="6" class="fil2" d="M17681 3140l-335 59c-12,-66 -37,-116 -77,-150 -41,-34 -92,-51 -156,-51 -85,0 -153,30 -204,88 -50,59 -75,157 -75,295 0,153 25,262 77,325 51,63 120,95 206,95 65,0 118,-19 159,-56 41,-37 70,-100 87,-190l335 57c-34,154 -101,270 -200,349 -98,79 -230,118 -396,118 -188,0 -339,-60 -451,-178 -112,-120 -168,-284 -168,-495 0,-214 57,-379 169,-498 112,-119 264,-178 456,-178 156,0 281,34 374,101 92,68 158,170 199,309z"/>
  <path id="7" class="fil2" d="M18685 3639l341 57c-44,125 -113,220 -207,285 -94,65 -212,98 -354,98 -224,0 -390,-73 -497,-220 -85,-117 -127,-266 -127,-445 0,-214 55,-381 167,-502 111,-122 252,-182 423,-182 191,0 343,63 454,190 110,127 163,321 158,583l-852 0c2,101 30,179 82,236 53,56 118,84 196,84 53,0 98,-14 134,-43 36,-29 64,-76 82,-141zm20 -345c-2,-99 -27,-174 -76,-226 -48,-52 -107,-77 -177,-77 -74,0 -135,27 -184,81 -48,55 -72,129 -71,222l508 0z"/>
 </g>
</svg>
